<svg xmlns="http://www.w3.org/2000/svg" id="Capa_10" data-name="Capa 10" viewBox="808.29 536.15 367.56 213.37">
  <defs>
    <style>
      .cls-1 {
        fill: #570c2d;
        font-family: PlayfairDisplay-Regular, 'Playfair Display';
        font-size: 10.9989px;
        font-variation-settings: 'wght' 400;
      }

      .cls-2 {
        fill: none;
        stroke: #570c2d;
        stroke-miterlimit: 10;
        stroke-width: 1.8332px;
      }

      .cls-3 {
        fill: #fff;
        stroke-width: 0px;
      }
    </style>
  </defs>
  <g id="Alianzas">
    <g>
      <g>
        <path class="cls-3" d="m1125.6613,552.8382c48.9738,30.4633,63.9687,94.8625,33.491,143.8219-30.4633,48.9594-94.8482,63.9543-143.8076,33.491-6.9163-4.3048-13.1582-9.2839-18.6826-14.8084-6.4858-6.4571-11.9816-13.6604-16.4442-21.3803-4.2474-7.3037-7.562-15.081-9.9153-23.1309-6.6293-22.643-5.5962-47.4384,4.0752-70.1532v-.0143c9.5566,1.808,18.2235,4.9792,25.5416,9.4418-7.6481,17.1186-8.5665,35.9447-3.5443,53.092.904,3.0851,1.9945,6.1271,3.286,9.083,3.9747,9.1978,9.7718,17.6639,17.2334,24.8385,3.8312,3.7021,8.1073,7.0455,12.7995,9.9583,36.2317,22.5426,83.8567,11.4507,106.3993-24.7811,22.5282-36.2174,11.4363-83.8423-24.7811-106.3849-20.3759-12.6847-44.3534-14.7079-65.461-7.6194-11.795,3.9604-22.7004,10.7906-31.5682,20.2037l-.0861.1148c-7.0598-5.467-15.368-9.8292-24.695-12.8999l.0574-.1865c12.7564-15.6837,29.3871-26.8617,47.625-32.9888,28.5262-9.5853,60.941-6.8302,88.4771,10.3027Z"/>
        <path class="cls-3" d="m835.1189,700.2331c-.0143.0143,0,.0143,0,.0143,4.2474,12.7708,25.355,21.3229,46.6205,23.0735,38.4271,4.807,73.7835-8.0355,98.4785-29.3584,4.4626,7.7199,9.9583,14.9232,16.4442,21.3803-27.8231,20.2898-66.8959,33.2614-110.5318,33.2614-42.5167,0-76.926-27.0339-76.926-60.4531,0-66.8242,77.8874-117.8499,144.8264-117.8499,12.8856,0,24.8241,1.8797,35.4712,5.4096,9.327,3.0707,17.6352,7.4329,24.695,12.8999,16.0854,12.4407,25.642,30.6642,25.642,52.8911,0,20.0171-8.3656,39.1733-22.93,55.6031l-.0143.0143c-7.4616-7.1746-13.2587-15.6406-17.2334-24.8385,10.0301-14.7366,15.7698-31.3243,15.7698-48.0698,0,0,.0143-.0143,0-.0143-4.0034-5.5818-9.2696-10.3027-15.5115-14.0909-7.3181-4.4626-15.985-7.6338-25.5416-9.4418-20.7489-3.903-45.7022-1.3632-70.268,8.5952-46.8501,18.984-75.9216,58.2864-68.9909,90.9739Z"/>
      </g>
      <g>
        <path class="cls-2" d="m974.3778,600.6784c-9.6714,22.7148-10.7045,47.5102-4.0752,70.1532,2.3533,8.0499,5.6679,15.8272,9.9153,23.1309,4.4626,7.7199,9.9583,14.9232,16.4442,21.3803,5.5244,5.5244,11.7663,10.5036,18.6826,14.8084,48.9594,30.4633,113.3443,15.4684,143.8076-33.491,30.4777-48.9594,15.4828-113.3586-33.491-143.8219-27.5361-17.1329-59.9509-19.888-88.4771-10.3027-18.2378,6.1271-34.8685,17.3051-47.625,32.9888"/>
        <path class="cls-2" d="m999.9193,610.1059c-7.6481,17.1186-8.5665,35.9447-3.5443,53.092.904,3.0851,1.9945,6.1271,3.286,9.083,3.9747,9.1978,9.7718,17.6639,17.2334,24.8385,3.8312,3.7021,8.1073,7.0455,12.7995,9.9583,36.2317,22.5426,83.8567,11.4507,106.3993-24.7811,22.5282-36.2174,11.4363-83.8423-24.7811-106.3849-20.3759-12.6847-44.3534-14.7079-65.461-7.6194-11.795,3.9604-22.7004,10.7906-31.5682,20.2037"/>
        <path class="cls-2" d="m835.1189,700.2475c4.2474,12.7708,25.355,21.3229,46.6205,23.0735"/>
        <path class="cls-2" d="m834.344,695.5122c0,1.6215.2583,3.1999.7749,4.7209"/>
        <path class="cls-2" d="m980.2179,693.9625c-24.695,21.3229-60.0514,34.1654-98.4785,29.3584"/>
        <path class="cls-2" d="m1015.4308,624.2111c0,16.7455-5.7397,33.3332-15.7698,48.0698"/>
        <path class="cls-2" d="m886.1303,748.6043c-42.5167,0-76.926-27.0339-76.926-60.4531,0-66.8242,77.8874-117.8499,144.8264-117.8499,12.8856,0,24.8241,1.8797,35.4712,5.4096,9.327,3.0707,17.6352,7.4329,24.695,12.8999,16.0854,12.4407,25.642,30.6642,25.642,52.8911"/>
        <path class="cls-2" d="m1016.9088,697.105c14.5644-16.4298,22.93-35.586,22.93-55.6031"/>
        <path class="cls-2" d="m886.1303,748.6043c43.6359,0,82.7087-12.9717,110.5318-33.2614"/>
        <path class="cls-2" d="m1024.1551,648.4756c-.4161-5.094-1.5641-10.0444-3.4869-14.794-1.3775-3.3864-3.1281-6.5432-5.2375-9.4705,0,0,.0143-.0143,0-.0143-4.0034-5.5818-9.2696-10.3027-15.5115-14.0909-7.3181-4.4626-15.985-7.6338-25.5416-9.4418-20.7489-3.903-45.7022-1.3632-70.268,8.5952-46.8501,18.984-75.9216,58.2864-68.9909,90.9739-.0143.0143,0,.0143,0,.0143.5309,2.6116,1.3058,5.1657,2.3246,7.6768,2.5111,6.2275,5.6679,11.0058,11.1637,15.3967"/>
      </g>
    </g>
    <text class="cls-1" transform="translate(894.5235 739.1965) rotate(-.6887)"><tspan x="0" y="0">A</tspan></text>
    <text class="cls-1" transform="translate(901.6588 739.0989) rotate(-3.4566)"><tspan x="0" y="0">Z</tspan></text>
    <text class="cls-1" transform="translate(908.3809 738.6917) rotate(-6.0769)"><tspan x="0" y="0">A</tspan></text>
    <text class="cls-1" transform="translate(915.2984 737.97) rotate(-8.8673)"><tspan x="0" y="0">H</tspan></text>
    <text class="cls-1" transform="translate(923.7471 736.6282) rotate(-11.6827)"><tspan x="0" y="0">A</tspan></text>
    <text class="cls-1" transform="translate(930.5045 735.2356) rotate(-14.1894)"><tspan x="0" y="0">R</tspan></text>
    <text class="cls-1" transform="translate(937.6182 733.429) rotate(-16.8131)"><tspan x="0" y="0">A</tspan></text>
    <text class="cls-1" transform="translate(944.4014 731.3411) rotate(-18.6578)"><tspan x="0" y="0"> </tspan></text>
    <text class="cls-1" transform="translate(946.7676 730.5755) rotate(-20.2996)"><tspan x="0" y="0">Y</tspan></text>
    <text class="cls-1" transform="translate(952.6675 728.3665) rotate(-21.9936)"><tspan x="0" y="0"> </tspan></text>
    <text class="cls-1" transform="translate(955.2896 727.3118) rotate(-23.2635)"><tspan x="0" y="0">J</tspan></text>
    <text class="cls-1" transform="translate(958.7003 725.8958) rotate(-25.6596)"><tspan x="0" y="0">O</tspan></text>
    <text class="cls-1" transform="translate(966.2491 722.2307) rotate(-28.7006)"><tspan x="0" y="0">S</tspan></text>
    <text class="cls-1" transform="translate(971.6583 719.2747) rotate(-31.5565)"><tspan x="0" y="0">É</tspan></text>
  </g>
</svg>