<svg xmlns="http://www.w3.org/2000/svg" id="Capa_10" data-name="Capa 10" viewBox="1581.9 288.37 223.95 364.44">
  <defs>
    <style>
      .cls-1 {
        opacity: .69;
      }

      .cls-1, .cls-2 {
        fill: #fff;
      }

      .cls-1, .cls-2, .cls-3 {
        stroke-width: 0px;
      }

      .cls-4 {
        stroke-width: 4.0249px;
      }

      .cls-4, .cls-5, .cls-6, .cls-7, .cls-8, .cls-9, .cls-10, .cls-11 {
        fill: none;
      }

      .cls-4, .cls-5, .cls-9, .cls-12, .cls-10, .cls-11 {
        stroke: #fff;
      }

      .cls-4, .cls-6, .cls-7, .cls-9, .cls-12, .cls-10, .cls-11 {
        stroke-miterlimit: 10;
      }

      .cls-5, .cls-8 {
        stroke-linecap: round;
        stroke-linejoin: round;
      }

      .cls-5, .cls-9 {
        stroke-width: 2.0124px;
      }

      .cls-6, .cls-7, .cls-8, .cls-11 {
        stroke-width: 1.0062px;
      }

      .cls-6, .cls-8 {
        stroke: #570c2d;
      }

      .cls-7 {
        stroke: #711326;
      }

      .cls-12 {
        fill: #570c2d;
        stroke-width: 1.3099px;
      }

      .cls-10 {
        stroke-width: .5031px;
      }

      .cls-3 {
        fill: #f8f7f7;
        opacity: .33;
      }
    </style>
  </defs>
  <g id="Copa">
    <path class="cls-3" d="m1624.3431,337.413c-6.6617.0183-13.9854-.9222-11.141,5.1018,13.8319,29.2937,52.9009,100.9574,79.0429,107.3584,31.2588,7.6539,66.6137-67.3187,76.529-95.6485,1.818-5.1945,13.96-19.3695-18.9357-17.156l-125.4953.3442Z"/>
    <path class="cls-10" d="m1619.5538,337.5924c67.7064-4.2172,151.8242-1.3317,151.8242-.3619"/>
    <path class="cls-9" d="m1582.9018,305.8323c20.4042,38.6831,60.503,117.8611,90.4311,149.7518,2.6513,2.8252,9.7306,7.8566,19.7818,7.6616"/>
    <path class="cls-11" d="m1604.5676,329.4286s42.162,91.4881,72.6189,121.945c5.7433,5.7433,12.8983,6.1536,18.3143,6.1536"/>
    <path class="cls-9" d="m1582.9018,305.8323c12.3315,12.3315,112.3538,12.3315,112.3538,12.3315,0,0,1.2241.0291,3.4254.0613"/>
    <path class="cls-9" d="m1629.975,628.8191c-2.908,1.7425-5.2831,4.0575-5.2831,6.5387,0,5.3287,8.9444,16.442,73.9891,16.442"/>
    <path class="cls-9" d="m1689.7757,485.9597c-.0096,19.7979-.1398,82.1998-1.371,105.509-.4006,7.5843-1.9283,20.614-15.5857,26.0769-12.3354,4.9341-21.6313,6.4547-29.3258,7.4904"/>
    <path class="cls-9" d="m1678.4951,459.2948s7.1291,5.1314,10.0528,13.3579"/>
    <path class="cls-5" d="m1582.9018,305.8323c7.9641-8.9061,83.4946-8.9061,115.7792-8.9061"/>
    <path class="cls-9" d="m1804.8393,305.8323c-12.3315,12.3315-112.3538,12.3315-112.3538,12.3315,0,0-1.2241.0291-3.4254.0613"/>
    <path class="cls-9" d="m1804.8393,305.8323c-20.4042,38.6831-58.9318,120.2836-88.8599,152.1743-1.1889,1.2668-4.765,4.1239-7.6774,5.8858"/>
    <path class="cls-9" d="m1726.17,619.2192c12.1565,4.2769,19.7492,4.669,27.3177,6.0336,4.4163.7963,13.6161,2.5691,13.6161,10.105,0,5.3287-8.9444,16.442-73.9891,16.442"/>
    <path class="cls-5" d="m1702.02,483.2659c.0033,16.0023.0939,83.6999,1.3709,108.2028.2356,4.5213.3904,10.1152,4.1622,15.553"/>
    <path class="cls-9" d="m1708.302,463.8925s-3.6182,2.0418-5.3636,8.2608"/>
    <path class="cls-5" d="m1804.8393,305.8323c-7.9641-8.9061-73.8737-8.9061-106.1583-8.9061"/>
    <g>
      <g>
        <path class="cls-2" d="m1785.3794,462.7031c3.0589,3.3017,5.4678,14.0627-2.8486,19.219-5.1046,3.1386-10.3812,4.0354-24.9685,6.0734-7.3032,1.019-19.5963,1.0598-32.0614-.163-4.4737-5.89-10.821-10.8629-19.7874-13.6754,2.5427.6929,37.9689,9.7623,69.5141-4.3003,11.471-5.1155-.9177-11.1686-15.5241-9.5382,18.1624-2.731,24.0699.6726,25.6759,2.3845Z"/>
        <path class="cls-2" d="m1759.7036,460.3185c14.6064-1.6305,26.995,4.4226,15.5241,9.5382-31.5452,14.0627-66.9714,4.9933-69.5141,4.3003-.0956-.0204-.1529-.0408-.1529-.0408,0,0,7.8194-2.8941,29.0407-8.03,10.2474-2.996,18.4874-4.7895,25.1023-5.7677Z"/>
        <path class="cls-2" d="m1736.6469,525.6182c.65,14.3888-3.3648,28.431-9.0238,49.9123-4.1487,15.7543-3.0589,30.9786-1.1471,42.3918,1.8736,11.1278-17.6462,23.825-17.6462,23.825,0,0-4.0913-14.9798-1.2809-34.7287.803-5.6251,2.1604-11.6374,4.3399-17.7923,7.6282-21.6035,15.1608-45.3266,18.9271-63.5673,1.9118-9.2732,2.8486-17.1401,2.3133-22.6022,2.7148,8.6414,3.2692,17.1198,3.5178,22.5614Z"/>
        <path class="cls-2" d="m1733.1291,503.0568c.5353,5.462-.4015,13.329-2.3133,22.6022-.6883-6.7052-2.7339-34.0153-27.5495-42.7587,1.0706-.6318,1.6824-2.14,1.9883-3.75,1.3383-2.3438.3059-5.034.3059-5.034,0,0,.0574.0204.1529.0408,8.9665,2.8125,15.3138,7.7854,19.7874,13.6754,3.5942,4.7079,6.0031,9.9865,7.6282,15.204v.0204Z"/>
        <path class="cls-2" d="m1685.4863,483.899c-.1529-.8764.0382-1.9769.3824-3.2813.4397-.9171.7265-1.875.7839-2.6699.0382-.1223.0956-.2649.1147-.4076.3059-.9579.5927-1.9769.8221-3.0367.5353-2.4457,3.2883-4.0761,6.1752-3.7297l7.112.8967c2.6957.3261,4.7222,2.303,4.684,4.606-.0191.8764-.0956,1.8954-.3059,2.8737,0,.0204-.0191.0611-.0382.0815-1.3765,2.3642-1.9692,3.6685-1.9692,3.6685h.0191c-.3059.2242-.65.3261-1.0324.3669-4.5884.3057-4.1487,2.5272-12.6181,2.6902-2.7722.0611-3.881-.7133-4.1296-2.0584Z"/>
        <path class="cls-2" d="m1686.6143,477.1937c.0574.2242.0574.4688.0382.7541-.2868.9579-.5544,1.8546-.7839,2.6699-.2103.4891-.478.9579-.7456,1.3859-1.3383-.5503-2.6957-1.0598-4.034-1.5082,1.778-.9987,3.5369-2.2623,5.2002-3.9539.1338.2038.2485.4076.325.6522Z"/>
        <path class="cls-2" d="m1686.2128,476.4193c.0191.0408.0574.0815.0765.1223-1.6633,1.6916-3.4222,2.9552-5.2002,3.9539-2.256-.7745-4.531-1.3859-6.7679-1.875l11.1077-2.4457c.3059,0,.5544.0611.7456.2242.0191,0,.0382,0,.0382.0204Z"/>
        <path class="cls-2" d="m1686.1746,476.3989c-.1912-.163-.4397-.2242-.7456-.2242l-11.1077,2.4457c-24.1464-5.1767-47.0119,4.4022-52.7474,7.0925-.9177.428-1.7015,1.0394-2.3133,1.7731-1.6251,1.9973-5.009,6.4811-7.5326,12.1469-1.3956,3.0979-2.5045,6.5626-2.9251,10.1496-2.3324-.7745-4.0531-3.8112-4.4354-10.9852-1.2427-22.969,11.6239-23.0098,21.0492-27.1878,12.599-5.5639,29.1172-9.3343,48.9428-.4891,6.4237,2.8533,10.2665,3.1998,11.8151,5.2786Z"/>
        <path class="cls-2" d="m1685.1231,482.0036c.2677-.428.5353-.8967.7456-1.3859-.3441,1.3044-.5353,2.4049-.3824,3.2813-2.0648,4.0761-9.8842,9.477-19.5771,13.4512,5.2002-7.7243,11.9489-9.1102,18.0094-13.9404.4015-.3261.8221-.8152,1.2045-1.4063Z"/>
        <path class="cls-2" d="m1681.0891,480.4954c1.3383.4484,2.6957.9579,4.034,1.5082-.3824.591-.803,1.0802-1.2045,1.4063-6.0605,4.8302-12.8093,6.2161-18.0094,13.9404-3.556,1.4674-7.3797,2.731-11.2416,3.6889-1.3383.3261-2.581.6114-3.7663.8356.975-4.9117,2.4471-8.7433,4.1487-11.7393,6.1561-10.761,15.4285-10.6591,15.4285-10.6591l3.8428-.856c2.2368.4891,4.5119,1.1006,6.7679,1.875Z"/>
        <path class="cls-2" d="m1665.9092,497.3502c-1.8545,2.7514-3.5178,6.318-4.8752,11.1278-3.3457,11.8616.5353,10.1903-9.4062,44.2261-8.5841,29.3482-9.54,33.3632-8.6224,44.0223.8603,10.1496,2.1986,42.2288-3.9384,42.2084-2.0839,0-4.034.9375-5.7355,2.2011-1.7398,1.3044-4.4546.0611-4.206-1.9158,1.0324-8.0911,1.8354-21.0736-1.1662-32.6702-4.7987-18.5668,18.7742-77.7523,22.5787-102.5148.1147-.7337.2485-1.4674.3632-2.1604,1.1853-.2242,2.428-.5095,3.7663-.8356,3.8619-.9579,7.6856-2.2215,11.2416-3.6889Z"/>
        <path class="cls-2" d="m1655.05,490.1355c-1.7015,2.996-3.1736,6.8275-4.1487,11.7393-16.2506,3.322-18.7168-1.1209-25.4847.4484-12.6945,2.9348-11.4901,9.1917-16.6138,7.4593.4206-3.587,1.5295-7.0517,2.9251-10.1496l.1338.0611c6.309-7.8873,17.3977-7.6835,17.3977-7.6835,0,0,19.2904,1.0598,25.7906-1.875Z"/>
      </g>
      <g>
        <path class="cls-8" d="m1665.9092,497.3502c9.693-3.9742,17.5124-9.3751,19.5771-13.4512"/>
        <path class="cls-8" d="m1686.1746,476.3989c-1.5486-2.0788-5.3914-2.4253-11.8151-5.2786-19.8257-8.8452-36.3439-5.0748-48.9428.4891-9.4253,4.178-22.2919,4.2188-21.0492,27.1878.3824,7.174,2.103,10.2107,4.4354,10.9852,5.1237,1.7324,3.9193-4.5245,16.6138-7.4593,6.7679-1.5693,9.2341,2.8737,25.4847-.4484"/>
        <path class="cls-8" d="m1686.2893,476.5416c-.0191-.0408-.0574-.0815-.0765-.1223"/>
        <path class="cls-8" d="m1686.7673,477.5402c-.0382-.1223-.0765-.2446-.1529-.3465"/>
        <path class="cls-6" d="m1608.8028,509.7824c.4206-3.587,1.5295-7.0517,2.9251-10.1496,2.5236-5.6658,5.9076-10.1496,7.5326-12.1469.6118-.7337,1.3956-1.3451,2.3133-1.7731,5.7355-2.6902,28.601-12.2692,52.7474-7.0925"/>
        <path class="cls-6" d="m1611.8618,499.694c6.309-7.8873,17.3977-7.6835,17.3977-7.6835,0,0,19.2904,1.0598,25.7906-1.875"/>
        <path class="cls-6" d="m1685.8687,480.6177c-.3441,1.3044-.5353,2.4049-.3824,3.2813.2485,1.3451,1.3574,2.1196,4.1296,2.0584,8.4694-.163,8.0297-2.3845,12.6181-2.6902.3824-.0408.7265-.1427,1.0324-.3669,1.0706-.6318,1.6824-2.14,1.9883-3.75.2103-.9783.2868-1.9973.3059-2.8737.0382-2.303-1.9883-4.2799-4.684-4.606l-7.112-.8967c-2.8869-.3465-5.6399,1.284-6.1752,3.7297-.2294,1.0598-.5162,2.0788-.8221,3.0367-.0191.1427-.0765.2853-.1147.4076"/>
        <path class="cls-8" d="m1733.1291,503.0364c-1.6251-5.2175-4.034-10.496-7.6282-15.204-4.4737-5.89-10.821-10.8629-19.7874-13.6754"/>
        <path class="cls-8" d="m1707.5488,607.0186c-2.8104,19.7489,1.2809,34.7287,1.2809,34.7287,0,0,19.5198-12.6972,17.6462-23.825-1.9118-11.4132-3.0016-26.6375,1.1471-42.3918,5.659-21.4812,9.6739-35.5235,9.0238-49.9123-.2485-5.4416-.803-13.92-3.5178-22.5614"/>
        <path class="cls-8" d="m1733.1291,503.0364v.0204c.5353,5.462-.4015,13.329-2.3133,22.6022-3.7663,18.2407-11.2989,41.9638-18.9271,63.5673-2.1795,6.155-3.5369,12.1673-4.3399,17.7923"/>
        <path class="cls-6" d="m1686.1746,476.3989c-.1912-.163-.4397-.2242-.7456-.2242l-11.1077,2.4457-3.8428.856s-9.2724-.1019-15.4285,10.6591c-1.7015,2.996-3.1736,6.8275-4.1487,11.7393-.1147.6929-.2485,1.4266-.3632,2.1604-3.8045,24.7625-27.3774,83.948-22.5787,102.5148,3.0016,11.5966,2.1986,24.5791,1.1662,32.6702-.2485,1.9769,2.4663,3.2201,4.206,1.9158,1.7015-1.2636,3.6516-2.2011,5.7355-2.2011,6.137.0204,4.7987-32.0588,3.9384-42.2084-.9177-10.6591.0382-14.6741,8.6224-44.0223,9.9415-34.0357,6.0605-32.3645,9.4062-44.2261,1.3574-4.8098,3.0207-8.3765,4.8752-11.1278,5.2002-7.7243,11.9489-9.1102,18.0094-13.9404.4015-.3261.8221-.8152,1.2045-1.4063.2677-.428.5353-.8967.7456-1.3859.4397-.9171.7265-1.875.7839-2.6699.0191-.2853.0191-.5299-.0382-.7541-.0382-.2853-.1338-.5095-.2868-.6726-.0382-.0408-.0765-.0815-.1147-.1019"/>
        <path class="cls-8" d="m1686.2128,476.4193c0-.0204-.0191-.0204-.0382-.0204"/>
        <path class="cls-6" d="m1686.6717,476.1747c-.1147.1223-.2294.2242-.3441.3465,0,.0204-.0191.0204-.0382.0204-1.6633,1.6916-3.4222,2.9552-5.2002,3.9539-8.8327,4.9729-18.1433,3.5055-20.2463,12.5137"/>
        <path class="cls-8" d="m1734.6012,466.0863c-21.2213,5.1359-29.0407,8.03-29.0407,8.03,0,0,.0574.0204.1529.0408,2.5427.6929,37.9689,9.7623,69.5141-4.3003,11.471-5.1155-.9177-11.1686-15.5241-9.5382"/>
        <path class="cls-8" d="m1725.5009,487.8325c12.4651,1.2228,24.7582,1.1821,32.0614.163,14.5873-2.0381,19.8639-2.9348,24.9685-6.0734,8.3165-5.1563,5.9076-15.9173,2.8486-19.219-1.6059-1.712-7.5135-5.1155-25.6759-2.3845-6.6149.9783-14.8549,2.7718-25.1023,5.7677"/>
        <path class="cls-8" d="m1705.5605,474.1163s1.0324,2.6902-.3059,5.034c0,.0204-.0191.0611-.0382.0815-1.3765,2.3642-1.9692,3.6685-1.9692,3.6685h.0191c24.8156,8.7433,26.8612,36.0534,27.5495,42.7587"/>
      </g>
    </g>
    <path class="cls-1" d="m1650.2616,367.4023c1.3689,3.3557,2.5032,9.2971,6.2201,9.2971s7.2399-5.5802,7.2399-9.2971-3.0131-6.73-6.73-6.73-9.435.0989-6.73,6.73Z"/>
    <ellipse class="cls-1" cx="1643.4932" cy="355.1193" rx="5.6519" ry="3.8536"/>
    <line class="cls-4" x1="1710.7556" y1="438.357" x2="1784.7447" y2="290.3788"/>
    <path class="cls-7" d="m1772.5954,340.4594c1.7307-.6014,2.6438-1.0066,2.6438-1.1184"/>
    <path class="cls-11" d="m1737.5257,348.5404c17.3279-2.7076,29.8778-6.2769,35.0697-8.081"/>
    <ellipse class="cls-12" cx="1733.1067" cy="388.2454" rx="22.5991" ry="16.9408" transform="translate(680.6744 1818.9024) rotate(-66.2875)"/>
    <path class="cls-2" d="m1718.0681,392.7751c0,5.0471,1.5175,9.1386,3.3894,9.1386.7883,0-.0766-2.5239-.851-5.7252-.4756-1.966,1.0781-8.2174-.2287-8.5633-1.8096-.479-2.3097.1027-2.3097,5.1498Z"/>
    <ellipse class="cls-12" cx="1755.2635" cy="347.4121" rx="22.5991" ry="16.9408" transform="translate(731.3068 1814.7763) rotate(-66.2875)"/>
    <path class="cls-2" d="m1747.2363,333.5391c-2.478,4.3969-5.2275,8.3296-3.5967,9.2486.6868.387,2.826-2.3122,6.1658-6.9365,1.1843-1.6398,6.7652-3.8536,4.4454-5.4978-1.5272-1.0824-4.5365-1.2113-7.0145,3.1856Z"/>
    <path class="cls-10" d="m1612.1891,339.341c47.2305,16.1662,94.0645,14.0859,125.3366,9.1994"/>
    <polygon class="cls-2" points="1712.5699 439.2279 1709.9849 439.9627 1708.9414 437.4862 1712.5699 439.2279 1712.5699 439.2279"/>
  </g>
</svg>