<svg xmlns="http://www.w3.org/2000/svg" id="Capa_10" data-name="Capa 10" viewBox="1043.63 268.79 270.58 431.11">
  <defs>
    <style>
      .cls-1 {
        stroke-width: 1.4731px;
      }

      .cls-1, .cls-2, .cls-3 {
        stroke-miterlimit: 10;
      }

      .cls-1, .cls-4, .cls-3, .cls-5 {
        fill: none;
      }

      .cls-1, .cls-4, .cls-5 {
        stroke: #fff;
      }

      .cls-2 {
        stroke-width: .4668px;
      }

      .cls-2, .cls-6 {
        fill: #fff;
      }

      .cls-2, .cls-3 {
        stroke: #711326;
      }

      .cls-6, .cls-7 {
        stroke-width: 0px;
      }

      .cls-4 {
        stroke-width: .9975px;
      }

      .cls-4, .cls-5 {
        stroke-linecap: round;
        stroke-linejoin: round;
      }

      .cls-3 {
        stroke-width: .5726px;
      }

      .cls-7 {
        fill: #570c2d;
      }

      .cls-5 {
        stroke-dasharray: 0 0 0 0 0 0 0 7.2608 0 7.2608 0 7.2608;
        stroke-width: 3.6304px;
      }
    </style>
  </defs>
  <g id="Tarta">
    <g id="Tarta-2" data-name="Tarta">
      <g>
        <path class="cls-7" d="m1312.3973,543.6939v111.6041c0,24.2198-59.7546,43.8634-133.479,43.8634s-133.479-19.6436-133.479-43.8634v-111.6041c0,24.2198,59.7785,43.8634,133.479,43.8634s133.479-19.6436,133.479-43.8634Z"/>
        <path class="cls-7" d="m1286.4191,517.6685c16.3141,7.2846,25.9782,16.2814,25.9782,26.0254,0,24.2198-59.7546,43.8634-133.479,43.8634s-133.479-19.6436-133.479-43.8634c0-9.744,9.6641-18.7408,25.9782-26.0254v8.6855c0,19.519,48.129,35.3335,107.5008,35.3335s107.5008-15.8145,107.5008-35.3335v-8.6855Z"/>
        <path class="cls-7" d="m1286.4191,517.6685v8.6855c0,19.519-48.129,35.3335-107.5008,35.3335s-107.5008-15.8145-107.5008-35.3335v-89.8748c0,19.519,48.129,35.3335,107.5008,35.3335s107.5008-15.8145,107.5008-35.3335v81.1893Z"/>
        <path class="cls-7" d="m1259.8908,413.2245c16.5055,6.2262,26.5283,14.3513,26.5283,23.2548,0,19.519-48.129,35.3335-107.5008,35.3335s-107.5008-15.8145-107.5008-35.3335c0-8.9034,10.0229-17.0286,26.5283-23.2548h.3588v1.5877c0,14.6315,36.0967,26.4924,80.6136,26.4924s80.6136-11.8609,80.6136-26.4924v-1.5877h.3588Z"/>
        <path class="cls-7" d="m1259.532,413.2245v1.5877c0,14.6315-36.0967,26.4924-80.6136,26.4924s-80.6136-11.8609-80.6136-26.4924v-118.7953c0,14.6315,36.0967,26.4924,80.6136,26.4924s80.6136-11.8609,80.6136-26.4924v117.2077Z"/>
        <ellipse class="cls-7" cx="1178.9183" cy="296.0168" rx="80.6136" ry="26.4924"/>
      </g>
      <g>
        <polyline class="cls-1" points="1071.4175 436.4792 1071.4175 517.6685 1071.4175 526.354"/>
        <path class="cls-1" d="m1097.9459,413.2245c-16.5055,6.2262-26.5283,14.3513-26.5283,23.2548,0,19.519,48.129,35.3335,107.5008,35.3335s107.5008-15.8145,107.5008-35.3335c0-8.9034-10.0229-17.0286-26.5283-23.2548"/>
        <path class="cls-1" d="m1071.4175,526.354c0,19.519,48.129,35.3335,107.5008,35.3335s107.5008-15.8145,107.5008-35.3335"/>
        <polyline class="cls-1" points="1286.4191 436.4792 1286.4191 517.6685 1286.4191 526.354"/>
        <path class="cls-1" d="m1071.4175,517.6685c-16.3141,7.2846-25.9782,16.2814-25.9782,26.0254,0,24.2198,59.7785,43.8634,133.479,43.8634s133.479-19.6436,133.479-43.8634c0-9.744-9.6641-18.7408-25.9782-26.0254"/>
        <path class="cls-1" d="m1045.4393,543.6939v111.6041c0,24.2198,59.7785,43.8634,133.479,43.8634s133.479-19.6436,133.479-43.8634v-111.6041"/>
        <path class="cls-1" d="m1098.3047,414.8121c0,14.6315,36.0967,26.4924,80.6136,26.4924s80.6136-11.8609,80.6136-26.4924"/>
        <polyline class="cls-1" points="1098.3047 296.0168 1098.3047 413.2245 1098.3047 414.8121"/>
        <polyline class="cls-1" points="1259.532 296.0168 1259.532 413.2245 1259.532 414.8121"/>
        <ellipse class="cls-1" cx="1178.9183" cy="296.0168" rx="80.6136" ry="26.4924"/>
      </g>
    </g>
    <g id="Lazo">
      <path class="cls-6" d="m1260.3375,338.5451v40.5587c0,14.8071-36.2311,26.8007-81.025,26.8007s-81.0061-11.9936-81.0061-26.8007v-40.5587c0,14.8071,36.2311,26.7769,81.0061,26.7769s81.025-11.9697,81.025-26.7769Z"/>
      <path class="cls-4" d="m1179.3125,405.9045c44.7938,0,81.025-11.9936,81.025-26.8007v-40.5587c0,14.8071-36.2311,26.7769-81.025,26.7769s-81.0061-11.9697-81.0061-26.7769v40.5587c0,14.8071,36.2311,26.8007,81.0061,26.8007Z"/>
    </g>
    <g id="Perlas">
      <path class="cls-5" d="m1045.448,591.7653c0,58.7282,266.9455,58.7282,266.9455,0"/>
      <path class="cls-5" d="m1045.448,621.4243c0,58.7282,266.9455,58.7282,266.9455,0"/>
    </g>
    <g id="Moñitas_nata" data-name="Moñitas nata">
      <ellipse class="cls-2" cx="1185.0381" cy="509.4365" rx="5.892" ry="8.2357" transform="translate(662.0522 1688.5576) rotate(-89.3433)"/>
      <ellipse class="cls-2" cx="1181.2698" cy="506.0451" rx="8.2666" ry="5.87" transform="translate(100.0261 1200.5897) rotate(-55.9048)"/>
      <ellipse class="cls-2" cx="1176.6139" cy="505.8049" rx="5.4614" ry="8.8849" transform="translate(-102.8902 449.8755) rotate(-20.7591)"/>
      <ellipse class="cls-2" cx="1173.392" cy="509.4179" rx="5.6254" ry="8.626" transform="translate(120.9658 1236.5729) rotate(-58.1095)"/>
      <ellipse class="cls-2" cx="1173.3298" cy="513.5765" rx="8.1265" ry="5.9711" transform="translate(-100.009 375.4753) rotate(-17.4495)"/>
      <ellipse class="cls-2" cx="1176.1194" cy="517.2658" rx="8.4535" ry="5.7402" transform="translate(312.1668 1468.2688) rotate(-71.4862)"/>
      <ellipse class="cls-2" cx="1180.0777" cy="517.0532" rx="5.4614" ry="8.8849" transform="translate(-106.6522 451.8334) rotate(-20.7591)"/>
      <ellipse class="cls-2" cx="1183.904" cy="513.6538" rx="5.6254" ry="8.626" transform="translate(122.3277 1247.4963) rotate(-58.1095)"/>
      <g>
        <ellipse class="cls-2" cx="1238.2465" cy="512.7373" rx="8.2357" ry="5.892" transform="translate(308.7854 1478.2713) rotate(-68.5842)"/>
        <ellipse class="cls-2" cx="1242.7533" cy="510.4156" rx="5.87" ry="8.2666" transform="translate(-67.2592 808.4542) rotate(-35.1457)"/>
        <ellipse class="cls-2" cx="1244.6282" cy="506.1472" rx="8.8849" ry="5.4614"/>
        <ellipse class="cls-2" cx="1242.3917" cy="501.8539" rx="8.626" ry="5.6254" transform="translate(-49.7039 856.6543) rotate(-37.3504)"/>
        <ellipse class="cls-2" cx="1238.5251" cy="500.3217" rx="8.1265" ry="5.9711" transform="translate(667.5372 1707.8974) rotate(-86.6905)"/>
        <ellipse class="cls-2" cx="1234.0866" cy="501.6225" rx="5.7402" ry="8.4535" transform="translate(64.5659 1139.4439) rotate(-50.7271)"/>
        <ellipse class="cls-2" cx="1232.8825" cy="505.3992" rx="8.8849" ry="5.4614"/>
        <ellipse class="cls-2" cx="1234.7049" cy="510.182" rx="8.626" ry="5.6254" transform="translate(-56.3328 853.6986) rotate(-37.3504)"/>
      </g>
      <g>
        <ellipse class="cls-2" cx="1281.256" cy="500.6503" rx="8.2357" ry="5.892" transform="translate(347.3431 1510.6377) rotate(-68.5842)"/>
        <ellipse class="cls-2" cx="1285.7629" cy="498.3287" rx="5.87" ry="8.2666" transform="translate(-52.4602 831.0095) rotate(-35.1457)"/>
        <ellipse class="cls-2" cx="1287.6378" cy="494.0602" rx="8.8849" ry="5.4614"/>
        <ellipse class="cls-2" cx="1285.4012" cy="489.7669" rx="8.626" ry="5.6254" transform="translate(-33.5514 880.2691) rotate(-37.3504)"/>
        <ellipse class="cls-2" cx="1281.5347" cy="488.2348" rx="8.1265" ry="5.9711" transform="translate(720.1306 1739.4461) rotate(-86.6905)"/>
        <ellipse class="cls-2" cx="1277.0961" cy="489.5355" rx="5.7402" ry="8.4535" transform="translate(89.7068 1168.3036) rotate(-50.7271)"/>
        <ellipse class="cls-2" cx="1275.892" cy="493.3122" rx="8.8849" ry="5.4614"/>
        <ellipse class="cls-2" cx="1277.7145" cy="498.0951" rx="8.626" ry="5.6254" transform="translate(-40.1802 877.3134) rotate(-37.3504)"/>
      </g>
      <g>
        <ellipse class="cls-2" cx="1119.8213" cy="511.9314" rx="5.892" ry="8.2357" transform="translate(-37.8651 92.6037) rotate(-4.6567)"/>
        <ellipse class="cls-2" cx="1116.1753" cy="508.4088" rx="8.2666" ry="5.87" transform="translate(-75.9127 796.9445) rotate(-38.0952)"/>
        <ellipse class="cls-2" cx="1115.6108" cy="503.781" rx="5.4614" ry="8.8849" transform="translate(311.5435 1426.7427) rotate(-73.2409)"/>
        <ellipse class="cls-2" cx="1118.9904" cy="500.3149" rx="5.6254" ry="8.626" transform="translate(-80.8508 750.9853) rotate(-35.8905)"/>
        <ellipse class="cls-2" cx="1123.1345" cy="499.9628" rx="8.1265" ry="5.9711" transform="translate(375.6546 1476.0098) rotate(-76.5505)"/>
        <ellipse class="cls-2" cx="1127.0094" cy="502.4882" rx="8.4535" ry="5.7402" transform="translate(-106.5133 469.8345) rotate(-22.5138)"/>
        <ellipse class="cls-2" cx="1127.0734" cy="506.4516" rx="5.4614" ry="8.8849" transform="translate(317.1435 1439.619) rotate(-73.2409)"/>
        <ellipse class="cls-2" cx="1123.9492" cy="510.5058" rx="5.6254" ry="8.626" transform="translate(-85.8836 755.8272) rotate(-35.8905)"/>
      </g>
      <g>
        <ellipse class="cls-2" cx="1074.7745" cy="499.6492" rx="5.892" ry="8.2357" transform="translate(-37.0167 88.906) rotate(-4.6567)"/>
        <ellipse class="cls-2" cx="1071.1286" cy="496.1266" rx="8.2666" ry="5.87" transform="translate(-77.9305 766.5358) rotate(-38.0952)"/>
        <ellipse class="cls-2" cx="1070.5641" cy="491.4988" rx="5.4614" ry="8.8849" transform="translate(291.2464 1374.8687) rotate(-73.2409)"/>
        <ellipse class="cls-2" cx="1073.9436" cy="488.0327" rx="5.6254" ry="8.626" transform="translate(-82.2031 722.2452) rotate(-35.8905)"/>
        <ellipse class="cls-2" cx="1078.0878" cy="487.6806" rx="8.1265" ry="5.9711" transform="translate(353.0306 1422.7729) rotate(-76.5505)"/>
        <ellipse class="cls-2" cx="1081.9627" cy="490.2059" rx="8.4535" ry="5.7402" transform="translate(-105.2435 451.6498) rotate(-22.5138)"/>
        <ellipse class="cls-2" cx="1082.0266" cy="494.1694" rx="5.4614" ry="8.8849" transform="translate(296.8465 1387.7449) rotate(-73.2409)"/>
        <ellipse class="cls-2" cx="1078.9025" cy="498.2236" rx="5.6254" ry="8.626" transform="translate(-87.2359 727.0872) rotate(-35.8905)"/>
      </g>
    </g>
    <g>
      <g>
        <path class="cls-6" d="m1265.9638,324.0894c1.99-.5617,4.9932,4.6986,4.0471,15.9957.2668,3.2228,1.5588,12.4097.1163,13.969-.7939.8385-.4255,2.0789-1.9306,4.4872-1.3119,2.0676-2.3325,4.9792-5.1292,5.4217-7.6507,1.1689-13.7711-1.3698-17.9492-4.511,1.4955-2.7908-1.1053-1.5859-1.1145-4.1035-.0115-2.2774-.252-2.2414-.7821-2.7618-.6273-.6258,0,0-2.2218-.0993.3955-.0352,3.4328-.5137,11.0649-8.5891,19.5818-20.6833,12.5608-19.1288,12.5608-19.1288,0,0-.1113-.0073-.3737.0319l1.7119-.712Z"/>
        <path class="cls-6" d="m1266.8226,420.81c2.8867,2.7827,7.4505,3.899,7.291,4.3787-.1275.331-2.2708-.6918-3.717.5562-.9946.8206-.7692,1.9384-1.4753,2.4999-1.4142,1.0993-4.8141-1.1988-6.5473-2.8826-1.9039-1.8742-5.3848-6.4872-5.2362-22.8709.1315-15.2536,3.8412-18.3037.3393-23.7053-2.4861-3.8263-5.7838-1.4136-12.4104-6.3235-2.788-2.1258-5.8479-6.4659-3.7921-11.0439.6579-.0745,1.2463-.1865,1.7214-.3296l.0059.0711c1.4876,4.5994,3.4672,10.0609,10.7834,11.2691,7.4514,1.236,8.8994,5.6254,9.9705,11.3428,1.2154,6.3915-1.0647,8.7959-1.0902,19.7153-.0126,6.2634-.0301,13.2712,4.157,17.3227Z"/>
        <path class="cls-6" d="m1264.6256,324.7694s7.0211-1.5545-12.5608,19.1288c-7.6322,8.0754-10.6694,8.5539-11.0649,8.5891l-.0437.0065s12.3174-20.1959,17.0217-24.0667c3.5426-2.9292,5.5088-3.5113,6.274-3.6258.2624-.0393.3737-.0319.3737-.0319Z"/>
        <path class="cls-6" d="m1240.7478,361.4734c-1.8008.1735-2.7387.074-3.4333-.8297-.0219.0033-.0238-.0204-.0238-.0204-.0238-.0204-.0258-.0441-.0278-.0678-.0039-.0474.0577-.1046.1612-.1921.1612-.1921.3781-.5124.2318-1.2102l-.002-.0237c-.0981-1.1848-.784-2.7855-1.454-4.4605-.0308-.907.3417-1.7545,1.0478-2.3159.7459-.6154,1.2878.0472,3.7083.1408l.0437-.0065c2.2218.0993,1.5944-.5265,2.2218.0993.5301.5204.7706.4844.7821,2.7618.0092,2.5176,2.61,1.3127,1.1145,4.1035-.0757.1553-.1931.3408-.3086.55-.3126.5026-.9032.8549-1.8136,1.0871-.4751.1431-1.0635.2551-1.7214.3296-.1749.0262-.3737.0319-.5267.0548Z"/>
        <path class="cls-6" d="m1244.8206,424.2945c1.7906,9.3282,4.3504,18.5892,1.6913,20.4266-.5648.3964-1.7974.7488-2.908.4352-1.1762-.3038-1.4893-1.1446-2.9111-2.2753-.5699-.4665-1.8725-1.4951-3.313-1.7833-3.042-.6483-5.4558,2.2799-6.1546,1.5928-.8457-.857,2.0648-5.5389,2.0648-5.5389,5.823-9.34,4.3273-24.9978,3.4763-33.9388-1.7589-18.5692-8.3617-27.2013-4.0395-36.2207.7549-1.5764,3.3551-5.9959,4.5877-6.3483.6946.9036,1.6326,1.0032,3.4333.8297-8.1825,7.8458-2.0175,24.5562,1.2181,41.1771,2.2315,11.4453.4928,9.4264,2.8546,21.6439Z"/>
        <path class="cls-6" d="m1237.656,359.1532c.1463.6978-.0706,1.0182-.2318,1.2102.1951-.3171.273-.7126.2318-1.2102Z"/>
        <path class="cls-6" d="m1236.2807,355.3766c-.0634-.2304-.1048-.4641-.0807-.7076.6699,1.675,1.3559,3.2757,1.454,4.4605-.0297-.0915-.0614-.2067-.0931-.3219-.3249-.983-.5704-1.8099-1.0781-2.8615-.0813-.1798-.1427-.3865-.2021-.5695Z"/>
        <path class="cls-6" d="m1236.2807,355.3766c.0594.183.1208.3898.2021.5695.5076,1.0516.7532,1.8785,1.0781,2.8615.0317.1152.0634.2304.0931.3219l.002.0237c.0412.4976-.0367.8931-.2318,1.2102-.1034.0875-.1651.1447-.1612.1921-.2049.1986-.5469.3457-.9842.4112-4.4823.6708-9.5479,2.3165-10.878,2.8274-4.2667,1.6701-9.0478,3.0093-16.5813,2.3854-2.7861-.2308-5.09.2819-7.4586.0126-.7154-.0849-1.3351-.352-1.7957-.8348-.8278-.9077-.721-2.2911,1.1844-11.0929,2.3886-10.9852,2.7045-10.9125,2.6989-13.1188-.0412-6.1114-2.3459-8.5494-.5519-11.7447,1.0394-1.8829,3.1213-2.9381,4.7769-2.9939,17.7339-.4947,23.9768,12.0776,27.4069,25.1668.2593.9928.6795,2.0575,1.1196,3.0951-.0241.2435.0174.4772.0807.7076Z"/>
      </g>
      <g>
        <path class="cls-3" d="m1237.654,359.1295c-.0981-1.1848-.784-2.7855-1.454-4.4605-.4401-1.0377-.8603-2.1024-1.1196-3.0951-3.4302-13.0892-9.673-25.6616-27.4069-25.1668-1.6555.0558-3.7375,1.1111-4.7769,2.9939-1.794,3.1953.5107,5.6333.5519,11.7447.0056,2.2063-.3103,2.1336-2.6989,13.1188-1.9053,8.8017-2.0122,10.1851-1.1844,11.0929.4606.4829,1.0803.75,1.7957.8348,2.3687.2693,4.6726-.2434,7.4586-.0126,7.5335.6239,12.3146-.7153,16.5813-2.3854,1.3301-.5109,6.3957-2.1566,10.878-2.8274.4373-.0654.7793-.2126.9842-.4112"/>
        <path class="cls-3" d="m1237.4241,360.3635c.1951-.3171.273-.7126.2318-1.2102"/>
        <path class="cls-3" d="m1237.4,360.607c-.0219.0033-.0656.0098-.0855.0368-1.2326.3524-3.8328,4.7719-4.5877,6.3483-4.3222,9.0195,2.2806,17.6515,4.0395,36.2207.851,8.941,2.3467,24.5988-3.4763,33.9388,0,0-2.9105,4.6819-2.0648,5.5389.6988.6871,3.1126-2.2411,6.1546-1.5928,1.4405.2882,2.7432,1.3168,3.313,1.7833,1.4218,1.1307,1.7349,1.9715,2.9111,2.2753,1.1106.3136,2.3432-.0388,2.908-.4352,2.6591-1.8374.0993-11.0984-1.6913-20.4266-2.3619-12.2175-.6231-10.1986-2.8546-21.6439-3.2356-16.6209-9.4005-33.3313-1.2181-41.1771.0219-.0033.0199-.027.0418-.0302"/>
        <path class="cls-3" d="m1240.9561,352.4938c-2.4205-.0936-2.9624-.7562-3.7083-.1408-.7061.5615-1.0787,1.4089-1.0478,2.3159-.0241.2435.0174.4772.0807.7076.0594.183.1208.3898.2021.5695.5076,1.0516.7532,1.8785,1.0781,2.8615.0317.1152.0634.2304.0931.3219l.002.0237c.1463.6978-.0706,1.0182-.2318,1.2102-.1034.0875-.1651.1447-.1612.1921.002.0237.0039.0474.0278.0678,0,0,.002.0237.0238.0204.6946.9036,1.6326,1.0032,3.4333.8297.1531-.0229.3518-.0287.5267-.0548.6579-.0745,1.2463-.1865,1.7214-.3296.9105-.2322,1.5011-.5845,1.8136-1.0871.1155-.2092.2329-.3947.3086-.55,1.4955-2.7908-1.1053-1.5859-1.1145-4.1035-.0115-2.2774-.252-2.2414-.7821-2.7618-.6273-.6258,0,0-2.2218-.0993"/>
        <path class="cls-3" d="m1236.3424,355.3194s-.0219.0033-.0617.0572c-.3599.1978-2.589,1.3471-4.1167-1.0633-1.6785-2.6277-1.281-4.5104-6.3368-6.4887"/>
        <path class="cls-3" d="m1240.9561,352.4938l.0437-.0065c.3955-.0352,3.4328-.5137,11.0649-8.5891,19.5818-20.6833,12.5608-19.1288,12.5608-19.1288,0,0-.1113-.0073-.3737.0319-.7653.1145-2.7314.6966-6.274,3.6258-4.7043,3.8707-17.0217,24.0667-17.0217,24.0667Z"/>
        <path class="cls-3" d="m1270.0109,340.0851c.9461-11.2971-2.0572-16.5574-4.0471-15.9957"/>
        <path class="cls-3" d="m1241.2745,361.4186c-2.0559,4.5779,1.0041,8.9181,3.7921,11.0439"/>
        <path class="cls-3" d="m1243.0019,361.1601c1.4876,4.5994,3.4672,10.0609,10.7834,11.2691,7.4514,1.236,8.8994,5.6254,9.9705,11.3428,1.2154,6.3915-1.0647,8.7959-1.0902,19.7153-.0126,6.2634-.0301,13.2712,4.157,17.3227,2.8867,2.7827,7.4505,3.899,7.291,4.3787-.1275.331-2.2708-.6918-3.717.5562-.9946.8206-.7692,1.9384-1.4753,2.4999-1.4142,1.0993-4.8141-1.1988-6.5473-2.8826-1.9039-1.8742-5.3848-6.4872-5.2362-22.8709.1315-15.2536,3.8412-18.3037.3393-23.7053-2.4861-3.8263-5.7838-1.4136-12.4104-6.3235"/>
        <path class="cls-3" d="m1245.1182,359.4519c4.1781,3.1412,10.2985,5.6799,17.9492,4.511,2.7967-.4425,3.8174-3.3541,5.1292-5.4217,1.505-2.4084,1.1367-3.6487,1.9306-4.4872,1.4425-1.5593.1506-10.7462-.1163-13.969"/>
      </g>
    </g>
  </g>
</svg>