<svg xmlns="http://www.w3.org/2000/svg" id="Capa_10" data-name="Capa 10" viewBox="1803.64 177.66 283.71 481.78">
  <defs>
    <style>
      .cls-1 {
        fill: #fff;
        stroke-width: 0px;
      }

      .cls-2 {
        fill: #570c2d;
        stroke: #fff;
        stroke-linecap: round;
        stroke-linejoin: round;
        stroke-width: 2.4111px;
      }
    </style>
  </defs>
  <g id="Globos">
    <path class="cls-1" d="m1856.5537,659.4345c-2.2092-19.9642,1.0313-39.2298,11.242-56.6653,4.8005-8.562,10.4554-16.5722,15.557-24.8794,10.1034-16.3747,18.2176-34.8907,19.3035-54.233,1.5228-26.8549-19.9261-42.4392-26.2922-67.1006-1.3324-4.8233-2.16-9.7839-2.5395-14.7641-.0759-.9958.6699-1.8647,1.6658-1.9406,1.0061-.0776,1.8832.6881,1.9426,1.6953.541,9.5795,3.0041,18.9303,7.1412,27.595,4.0572,8.7286,9.6854,16.7646,14.085,25.6754,9.8892,19.0428,6.9405,38.4402-.5764,57.6757-16.7142,41.9936-46.2098,54.7968-41.529,106.9418h0Z"/>
    <path class="cls-2" d="m1878.2962,360.6458c1.4438-17.7372,12.8969-52.5803,34.7197-52.7197,26.7198.053,36.5796,26.4012,35.9366,49.1722-.262,39.1842-45.1119,64.1453-73.3848,83.776h0c-27.7737-21.5666-71.6739-47.3226-70.708-87.6817.2798-21.9952,12.5197-47.1912,37.8008-46.4186,21.4986,2.0616,35.0042,34.8152,35.6356,53.8718Z"/>
    <path class="cls-1" d="m1899.8721,627.2646c-1.7717-57.869,54.1996-84.9148,81.8445-127.8882,24.6769-39.0697,7.2271-71.9832-4.6172-111.2542-3.5423-12.6658-5.7343-26.7446-.4535-39.3734.3797-.9264,1.4426-1.369,2.3675-.9836.9289.3856,1.3645,1.4585.9676,2.3826-5.0609,11.761-3.0395,25.0431.1777,37.1441,5.0573,18.6732,12.939,37.0427,15.5192,56.4876,5.4278,36.7055-12.8583,61.9443-37.6149,86.4724-27.4947,27.2262-59.2609,54.8675-58.1908,97.0127h0Z"/>
    <path class="cls-2" d="m2000.4629,247.1716c5.2356-22.2432,34.1014-53.3213,54.9405-48.4162,30.2366,7.1171,34.7838,39.1042,27.9969,67.9381-10.057,42.7263-47.237,61.2406-105.0869,82.7548h0c-42.1798-45.0593-67.8791-78.3743-57.8221-121.1006,6.787-28.8338,25.1246-55.4343,55.3612-48.3171,20.8391,4.9051,29.8461,44.8977,24.6104,67.141Z"/>
    <path class="cls-1" d="m1826.1345,315.7798c13.6683-5.6472,14.9706-2.0584,6.9256,4.9484-14.9302,13.0037-20.7096,19.2647-21.6728,28.7202-2.0747,20.3655-8.1166-24.2222,14.7472-33.6686Z"/>
    <path class="cls-1" d="m1957.1565,185.7604c8.3488-.8487,9.7936,3.0042,9.7936,3.0042,3.9503,3.7228-1.9359,12.033-6.9195,14.1841-8.9441,3.8606-15.0535,7.2032-26.7938,23.8637-20.9408,29.7171-.2485-38.5952,23.9197-41.0521Z"/>
  </g>
</svg>