<svg xmlns="http://www.w3.org/2000/svg" id="Capa_2" data-name="Capa 2" viewBox="958.65 579.38 1733.34 114.46">
  <defs>
    <style>
      .cls-1 {
        fill: #ddb1c0;
      }

      .cls-1, .cls-2 {
        stroke-width: 0px;
      }

      .cls-2 {
        fill: #59002b;
      }
    </style>
  </defs>
  <path class="cls-1" d="m2691.689838,630.413917c-1.862479-13.863391-12.071267-22.320088-14.640306-24.235704-5.763662-5.35631-10.276822-9.691774-10.276822-19.635625v-7.158542H983.860977v7.158542c0,9.91862-4.485863,14.266699-10.276739,19.635625-2.569205,1.915616-12.77791,10.372313-14.640306,24.235704-1.563211,11.708236,3.085768,23.756781,13.824725,35.830556l.530086.541923c5.899648,5.469772,10.562234,9.79262,10.562234,19.887702v7.171157h1682.911733v-7.171157c0-10.095082,4.648896-14.405315,10.603054-19.925471l.489183-.504154c10.739123-12.073775,15.388019-24.122319,13.824891-35.830556Zm-25.515166,26.453859c-5.587105,5.179849-12.22061,11.456236-14.246039,22.64778H998.705137c-2.011822-11.16639-8.631887-17.442701-14.246039-22.64778-7.707533-8.746543-11.133141-16.988931-10.195181-24.513012,1.182634-9.389312,9.012547-15.022853,9.03976-15.035469l.475742-.327692.448611-.428462c5.641284-5.217695,12.424547-11.506621,14.477107-22.849396h1653.223495c2.052477,11.342775,8.849264,17.631701,14.517845,22.89978l.353446.340308.475742.327692c.081475.050385,7.911387,5.683926,9.094188,15.073238.937877,7.524081-2.48773,15.766469-10.195181,24.513012Z"/>
  <path class="cls-2" d="m2666.024301,660.487737c-5.586609,6.151765-12.219524,13.605816-14.244773,26.897275H998.702951c-2.011644-13.261585-8.631119-20.715545-14.244773-26.897275-7.706849-10.387692-11.132151-20.176633-10.194275-29.112488,1.182529-11.151067,9.011746-17.841652,9.038957-17.856635l.4757-.389179.448571-.508856c5.640782-6.196712,12.423443-13.665655,14.47582-27.13672h1653.076576c2.052295,13.471065,8.848478,20.940008,14.516554,27.196559l.353415.404161.4757.389179c.081468.059839,7.910684,6.750424,9.093379,17.901491.937794,8.935854-2.487509,18.724796-10.194275,29.112488Z"/>
</svg>